<svg t="1698904630115" class="icon" viewBox="0 0 1417 1024" version="1.1" xmlns="http://www.w3.org/2000/svg" p-id="12596" width="200" height="200"><path d="M0 157.538462h1417.846154v866.461538H0z" fill="#7dc5eb" p-id="12597"></path><path d="M708.923077 315.076923a275.692308 275.692308 0 1 1 0 551.384615 275.692308 275.692308 0 0 1 0-551.384615z m0 157.538462a118.153846 118.153846 0 1 1 0 236.307692 118.153846 118.153846 0 0 1 0-236.307692z m452.923077-157.538462a59.076923 59.076923 0 1 1 0 118.153846 59.076923 59.076923 0 0 1 0-118.153846zM157.538462 157.538462l157.538461-157.538462h236.307692l157.538462 157.538462H157.538462z" fill="#333333" p-id="12598"></path></svg>
