<svg t="1698828445309" class="icon" viewBox="0 0 1024 1024" version="1.1" xmlns="http://www.w3.org/2000/svg" p-id="4377" width="200" height="200"><path d="M0 0h1024v1024H0V0z" fill="#202425" opacity=".01" p-id="4378"></path><path d="M34.133333 136.533333a34.133333 34.133333 0 0 1 34.133334-34.133333h887.466666a34.133333 34.133333 0 0 1 34.133334 34.133333v682.666667a34.133333 34.133333 0 0 1-34.133334 34.133333H68.266667a34.133333 34.133333 0 0 1-34.133334-34.133333V136.533333z" fill="#11AA66" p-id="4379"></path><path d="M365.4656 487.867733a34.133333 34.133333 0 0 1 0 48.264534l-204.8 204.8a34.133333 34.133333 0 0 1-48.264533-48.264534l204.8-204.8a34.133333 34.133333 0 0 1 48.264533 0zM658.5344 487.867733a34.133333 34.133333 0 0 0 0 48.264534l204.8 204.8a34.133333 34.133333 0 0 0 48.264533-48.264534l-204.8-204.8a34.133333 34.133333 0 0 0-48.264533 0z" fill="#FFFFFF" p-id="4380"></path><path d="M34.133333 136.533333a34.133333 34.133333 0 0 1 34.133334-34.133333h887.466666a34.133333 34.133333 0 0 1 34.133334 34.133333v152.029867a34.133333 34.133333 0 0 1-15.701334 28.706133l-443.733333 285.252267a34.133333 34.133333 0 0 1-36.864 0l-443.733333-285.252267a34.133333 34.133333 0 0 1-15.701334-28.672V136.533333z" fill="#FFAA44" p-id="4381"></path></svg>
