<svg t="1698910083973" class="icon" viewBox="0 0 1024 1024" version="1.1" xmlns="http://www.w3.org/2000/svg" p-id="15129" width="200" height="200"><path d="M208.979592 1024h606.040816c115.461224 0 208.979592-93.518367 208.979592-208.979592V208.979592C1024 93.518367 930.481633 0 815.020408 0H208.979592C93.518367 0 0 93.518367 0 208.979592v606.040816c0 115.461224 93.518367 208.979592 208.979592 208.979592z" fill="#4BEB66" p-id="15130"></path><path d="M250.77551 731.428571h313.469388c46.18449 0 83.591837-37.407347 83.591837-83.591836V376.163265c0-46.18449-37.407347-83.591837-83.591837-83.591836H250.77551c-46.18449 0-83.591837 37.407347-83.591837 83.591836v271.67347c0 46.18449 37.407347 83.591837 83.591837 83.591836zM678.034286 601.756735l146.285714 97.593469c13.897143 9.299592 32.600816-0.731429 32.496327-17.449796V342.099592c0.10449-16.718367-18.599184-26.749388-32.496327-17.449796l-146.285714 97.593469c-5.746939 3.866122-9.299592 10.34449-9.299592 17.345306v144.822858c0 7.000816 3.552653 13.479184 9.299592 17.345306z" fill="#FFFFFF" p-id="15131"></path></svg>
