<svg t="1703656257409" class="icon" viewBox="0 0 1024 1024" version="1.1" xmlns="http://www.w3.org/2000/svg" p-id="6115" width="200" height="200"><path d="M359.330909 128c48.593455-0.512 95.418182 5.399273 140.567273 17.780364 48.686545 13.312 83.874909 33.419636 132.794182 70.981818l40.494545 30.999273c35.467636 26.112 62.231273 40.494545 95.790546 49.338181l16.151272 3.909819 16.151273 3.118545A346.018909 346.018909 0 0 0 930.909091 301.474909l-115.898182 432.593455-3.630545 2.373818c-32.674909 19.781818-80.989091 22.528-145.221819 7.633454-53.201455-12.334545-88.622545-32.907636-138.565818-74.053818l-31.650909-26.065454c-37.701818-30.114909-64.930909-45.521455-101.934545-54.737455-49.105455-12.194909-101.748364-16.337455-157.928728-12.520727l-6.795636 0.465454-81.547636 297.797819-1.536 4.235636a27.834182 27.834182 0 0 1-52.130909-18.944l75.357091-275.688727 109.195636-407.645091 2.001454-6.190546a65.210182 65.210182 0 0 1 51.339637-41.425454l6.469818-0.651637z" fill="#d81e06" p-id="6116"></path></svg>
