<svg t="1704953788609" class="icon" viewBox="0 0 1316 1024" version="1.1" xmlns="http://www.w3.org/2000/svg" p-id="3382" width="200" height="200"><path d="M0 127.269l330.606 247.076L0 636.928v-509.66z m1080.32 790.089c-24.65-36.133-89.234-104.083-193.829-203.85l430.08-384.146v621.495A73.143 73.143 0 0 1 1243.43 1024h-102.693a917.43 917.43 0 0 0-60.416-106.642z" fill="#C0DBB9" p-id="3383"></path><path d="M1024 296.01l65.097 52.077-111.616 98.011-6.29-4.973c34.23-57.71 51.785-106.058 52.736-145.116z m-141.824 74.093L722.432 242.395l-22.894 18.432A109.714 109.714 0 1 1 882.25 370.03z m-288.402-24.284L0 822.857V636.928l330.606-262.583L0 127.27V73.143A73.143 73.143 0 0 1 73.143 0h0.95l375.004 280.21L801.938 0h222.135L903.68 96.768a219.429 219.429 0 0 0-318.537 195.803c0 16.092 2.926 33.792 8.704 53.175z" fill="#FFFFFF" p-id="3384"></path><path d="M774.583 624.274c9.655 11.118 19.602 22.455 29.988 34.012 65.536-72.997 116.298-137.728 152.503-194.268l359.497-315.684v181.028L538.99 1024H319.415l455.168-399.726z" fill="#F1D25E" p-id="3385"></path><path d="M220.599 1024H73.143A73.143 73.143 0 0 1 0 950.857v-64.146l518.875-228.425c63.781-31.232 117.395-46.592 160.988-46.08 24.649 0.365 53.467 6.802 86.601 19.236L411.721 942.885C344.722 967.534 281.015 994.523 220.6 1024z m920.137 0h-64.146a304.786 304.786 0 0 0-27.063-43.593c-19.383-25.6-55.808-63.415-109.422-113.372l-25.82 10.68L982.748 1024h-56.246a258.194 258.194 0 0 0-12.215-27.575c-21.943-42.569-67.877-104.155-137.801-184.612l110.006-98.304c104.595 99.766 169.18 167.716 193.829 203.849 18.432 27.063 38.62 62.61 60.416 106.642z" fill="#95C9FF" p-id="3386"></path><path d="M593.847 345.746c21.211 70.949 81.481 163.767 180.736 278.528l-8.119 7.168c-33.134-12.434-61.952-18.87-86.601-19.163-43.593-0.585-97.28 14.775-160.988 46.007L0 886.71v-63.854l593.847-477.11z m105.691-84.919l22.894-18.432L882.249 370.03a109.714 109.714 0 0 1-182.71-109.276z m271.653 180.298l6.29 4.973-20.407 17.92c4.974-7.753 9.728-15.36 14.117-22.893zM1076.663 1024H982.82l-68.462-146.286 25.82-10.679c53.613 49.957 90.038 87.772 109.348 113.372 9.655 12.654 18.651 27.209 27.136 43.593z m-150.09 0h-387.51l237.495-212.187c69.924 80.457 115.858 142.043 137.8 184.612 4.682 9.07 8.778 18.286 12.216 27.575z m-607.085 0h-98.89a2043.538 2043.538 0 0 1 191.196-81.115L319.414 1024zM74.094 0h727.844l-352.84 280.21L74.093 0z" fill="#DADBC9" p-id="3387"></path><path d="M1024 296.01v-3.439A219.429 219.429 0 0 0 903.68 96.768L1024.073 0h219.356a73.143 73.143 0 0 1 65.901 41.399l7.241 59.319v47.616l-227.474 199.68L1024 296.082z" fill="#ACC4A5" p-id="3388"></path><path d="M804.571 658.286C658.286 495.25 585.143 373.394 585.143 292.57a219.429 219.429 0 1 1 438.857 0c0 80.823-73.143 202.68-219.429 365.715z m0-256a109.714 109.714 0 1 0 0-219.429 109.714 109.714 0 0 0 0 219.429z" fill="#FC4B35" p-id="3389"></path></svg>
