<svg t="1698828549595" class="icon" viewBox="0 0 1024 1024" version="1.1" xmlns="http://www.w3.org/2000/svg" p-id="10387" width="200" height="200"><path d="M934.4 0 89.6 0C38.4 0 0 38.4 0 89.6l0 844.8C0 985.6 38.4 1024 89.6 1024l844.8 0c51.2 0 89.6-38.4 89.6-89.6L1024 89.6C1024 38.4 985.6 0 934.4 0zM320 576 320 448l128 0L448 275.2 729.6 512 448 748.8 448 576 320 576zM64 934.4 64 89.6C64 70.4 76.8 64 89.6 64L256 64l0 896L89.6 960C76.8 960 64 947.2 64 934.4zM960 934.4c0 19.2-12.8 25.6-25.6 25.6L320 960l0-320 64 0 0 236.8L825.6 512 384 147.2 384 384 320 384 320 64l614.4 0C953.6 64 960 76.8 960 89.6L960 934.4z" fill="#1296db" p-id="10388"></path></svg>
