<svg t="1698140562750" class="icon" viewBox="0 0 1024 1024" version="1.1" xmlns="http://www.w3.org/2000/svg" p-id="10174" width="200" height="200"><path d="M845.827562 1022.441739H177.333649a66.604522 66.604522 0 0 1-66.693566-66.470956v-333.200696c0-36.730435 29.874087-66.515478 66.693566-66.515478 36.864 0 66.693565 29.785043 66.693565 66.515478v266.685217H779.133997v-266.685217c0-36.730435 29.829565-66.515478 66.693565-66.515478 36.819478 0 66.693565 29.785043 66.693565 66.515478v333.200696c0 36.685913-29.829565 66.470957-66.693565 66.470956M66.741649 517.520696c-18.69913 0-37.309217-7.791304-50.532174-23.017739A66.337391 66.337391 0 0 1 23.154866 400.695652L468.016083 17.808696a66.871652 66.871652 0 0 1 87.173566 0L1000.050866 400.695652a66.337391 66.337391 0 0 1 6.90087 93.807305 66.649043 66.649043 0 0 1-94.074435 6.856347l-401.274435-345.444174-401.318956 345.444174a66.56 66.56 0 0 1-43.542261 16.161392" fill="#8a8a8a" p-id="10175"></path></svg>
