<svg t="1697527624938" class="icon" viewBox="0 0 1572 1024" version="1.1" xmlns="http://www.w3.org/2000/svg" p-id="16608" width="200" height="200"><path d="M784.902358 223.918924c-3.791853 0-7.783278-0.199571-11.575131-0.598714-3.791853-0.399142-7.583707-0.798285-11.375561-1.596569-3.791853-0.798285-7.583707-1.59657-11.175989-2.594426-3.791853-0.997856-7.384136-2.394855-10.976418-3.791854-3.592282-1.396999-6.984993-2.993569-10.377704-4.789709-3.392711-1.796141-6.785422-3.592282-9.978561-5.587995-3.19314-1.995712-6.386279-4.190996-9.379848-6.585851-2.993569-2.394855-5.787566-4.78971-8.581563-7.384135-2.793997-2.594426-5.388423-5.388423-7.783279-8.182421-2.394855-2.793997-4.78971-5.787566-6.984993-8.781134-2.195284-2.993569-4.190996-6.186708-5.987137-9.379848s-3.392711-6.585851-4.989281-9.978562c-1.396999-3.392711-2.793997-6.785422-3.991424-10.377704-1.197427-3.592282-1.995712-6.984993-2.793998-10.577275-0.798285-3.592282-1.396999-7.184564-1.796141-10.776847a101.142701 101.142701 0 0 1 0-21.952836c0.399142-3.592282 0.997856-7.184564 1.796141-10.776846 0.798285-3.592282 1.59657-7.184564 2.793998-10.577276 1.197427-3.592282 2.394855-6.984993 3.991424-10.377704 1.396999-3.392711 3.19314-6.785422 4.989281-9.978562 1.796141-3.19314 3.791853-6.386279 5.987137-9.379848s4.390567-5.987137 6.984993-8.781134c2.394855-2.793997 4.989281-5.587995 7.783279-8.18242 2.793997-2.594426 5.587995-4.989281 8.581563-7.384136 2.993569-2.394855 5.987137-4.590138 9.379848-6.585851 3.19314-1.995712 6.585851-3.991425 9.978561-5.587994 3.392711-1.796141 6.984993-3.392711 10.377704-4.78971 3.592282-1.396999 7.184564-2.594426 10.976418-3.791853 3.791853-0.997856 7.384136-1.995712 11.175989-2.594426 3.791853-0.798285 7.583707-1.197427 11.375561-1.59657a112.418476 112.418476 0 0 1 23.150263 0c3.791853 0.399142 7.583707 0.798285 11.37556 1.59657 3.791853 0.798285 7.583707 1.59657 11.175989 2.594426 3.791853 0.997856 7.384136 2.394855 10.976418 3.791853 3.592282 1.396999 6.984993 2.993569 10.377704 4.78971 3.392711 1.796141 6.785422 3.592282 9.978562 5.587994 3.19314 1.995712 6.386279 4.190996 9.379848 6.585851 2.993569 2.394855 5.787566 4.78971 8.581563 7.384136 2.793997 2.594426 5.388423 5.388423 7.783278 8.18242 2.394855 2.793997 4.78971 5.787566 6.984993 8.781134 2.195284 2.993569 4.190996 6.186708 5.987137 9.379848 1.796141 3.19314 3.392711 6.585851 4.989281 9.978562 1.396999 3.392711 2.793997 6.785422 3.991425 10.377704 1.197427 3.592282 1.995712 6.984993 2.793997 10.577276 0.798285 3.592282 1.396999 7.184564 1.796141 10.776846a101.142701 101.142701 0 0 1 0 21.952836c-0.399142 3.592282-0.997856 7.184564-1.796141 10.776847-0.798285 3.592282-1.59657 7.184564-2.793997 10.577275-1.197427 3.592282-2.394855 6.984993-3.991425 10.377704-1.396999 3.392711-3.19314 6.785422-4.989281 9.978562-1.796141 3.19314-3.791853 6.386279-5.987137 9.379848s-4.390567 5.987137-6.984993 8.781134c-2.394855 2.793997-4.989281 5.587995-7.783278 8.182421-2.793997 2.594426-5.587995 4.989281-8.581563 7.384135-2.993569 2.394855-5.987137 4.590138-9.379848 6.585851-3.19314 1.995712-6.585851 3.991425-9.978562 5.587995-3.392711 1.796141-6.984993 3.392711-10.377704 4.789709-3.592282 1.396999-7.184564 2.594426-10.976418 3.791854-3.791853 0.997856-7.384136 1.995712-11.175989 2.594426-3.791853 0.798285-7.583707 1.197427-11.37556 1.596569-3.791853 0.399142-7.783278 0.598714-11.575132 0.598714z" p-id="16609" fill="#1296db"></path><path d="M1155.306568 225.515494l-0.997856 0.199571-0.798285 0.199572c-2.195284 0.598714-4.190996 1.197427-6.38628 1.796141-39.115962 10.976418-229.307347 61.867082-363.219645 61.867082-124.53245 0-297.361138-43.905671-352.64237-58.873514-5.587995-1.995712-11.175989-3.791853-16.763983-5.188852-39.914247-9.978562-67.455077 28.538686-67.455077 63.862795 0 34.924966 33.128825 51.489378 66.45722 63.463652v0.598714l200.369519 59.472227c20.555837 7.384136 25.94426 15.167414 28.538686 21.753265 8.781134 21.154551 1.796141 63.06451-0.798285 77.832781l-12.173845 90.006626-67.854219 352.243228-0.598714 2.993568-0.399142 2.594426c-4.78971 32.33054 20.156695 63.663224 67.455077 63.663224 41.311245 0 59.472228-27.141688 67.455077-63.862795 7.982849-36.721107 58.873514-315.122978 88.410056-315.122978S874.1107 959.937634 874.1107 959.937634c7.982849 36.721107 26.143832 63.862795 67.455077 63.862795 47.497954 0 72.444358-31.532255 67.255505-63.862795-0.399142-2.793997-0.997856-5.388423-1.596569-8.182421l-68.652505-349.249659-12.173845-90.006626c-8.781134-52.487234-1.796141-69.650361 0.598714-73.841356 0 0 0.199571-0.199571 0.199571-0.399143 2.195284-3.991425 12.572988-12.97213 36.721107-21.553693l187.996102-62.465796c1.197427-0.199571 2.195284-0.598714 3.392711-0.997856 33.727538-11.974274 67.455077-28.538686 67.455077-63.862795s-27.341259-73.841356-67.455077-63.862795z" p-id="16610" fill="#1296db"></path></svg>
