<svg t="1697527483177" class="icon" viewBox="0 0 1024 1024" version="1.1" xmlns="http://www.w3.org/2000/svg" p-id="13393" width="200" height="200"><path d="M725.2992 170.7008c-70.656 0-128 57.344-128 128s57.344 128 128 128 128-57.344 128-128c0-70.7584-57.2416-128-128-128z m0-56.9344c102.0928 0 184.9344 82.7392 184.9344 184.9344s-82.7392 184.9344-184.9344 184.9344-184.9344-82.7392-184.9344-184.9344 82.8416-184.9344 184.9344-184.9344z m-554.5984 56.9344v256h256v-256h-256z m0-56.9344h256c31.4368 0 56.9344 25.4976 56.9344 56.9344v256c0 31.4368-25.4976 56.9344-56.9344 56.9344h-256c-31.4368 0-56.9344-25.4976-56.9344-56.9344v-256c0-31.4368 25.4976-56.9344 56.9344-56.9344z m0 483.5328v256h256v-256h-256z m0-56.832h256c31.4368 0 56.9344 25.4976 56.9344 56.9344v256c0 31.4368-25.4976 56.9344-56.9344 56.9344h-256c-31.4368 0-56.9344-25.4976-56.9344-56.9344v-256c0-31.4368 25.4976-56.9344 56.9344-56.9344z m426.5984 56.832v256h256v-256h-256z m0-56.832h256c31.4368 0 56.9344 25.4976 56.9344 56.9344v256c0 31.4368-25.4976 56.9344-56.9344 56.9344h-256c-31.4368 0-56.9344-25.4976-56.9344-56.9344v-256c0.1024-31.4368 25.6-56.9344 56.9344-56.9344z" fill="#1296db" p-id="13394"></path></svg>
