<svg t="1697527145335" class="icon" viewBox="0 0 1024 1024" version="1.1" xmlns="http://www.w3.org/2000/svg" p-id="4264" width="200" height="200"><path d="M410.333838 413.408094a42.314032 42.314032 0 0 1-25.811559-8.885947L152.218243 224.26437a42.314032 42.314032 0 1 1 51.623119-66.856171L436.568538 338.512257a42.314032 42.314032 0 0 1-25.811559 75.742117z m192.951987 592.396449L855.054316 818.353381A88.859467 88.859467 0 0 0 855.054316 677.024514l-93.090871-75.742118a42.314032 42.314032 0 0 0-53.31568 65.58675l93.09087 75.742117 26.657841-33.004945-26.657841 39.35205-249.229649 189.143724a3.385123 3.385123 0 0 1-4.231403 0 3.808263 3.808263 0 0 1-2.115701-3.808263V795.503804a42.314032 42.314032 0 1 0-84.628065 0v139.636305a88.859467 88.859467 0 0 0 142.175148 71.087574z m-397.751902-132.01978L855.054316 310.584996A88.859467 88.859467 0 0 0 844.475808 169.256128L596.93872 13.54049A88.859467 88.859467 0 0 0 461.110677 88.859467v101.976818a42.314032 42.314032 0 1 0 84.628064 0V88.859467a3.808263 3.808263 0 0 1 2.115702-4.231403h4.231403l247.537088 154.869358 22.426437-35.966928-22.003297 42.314033L150.525681 809.890574a42.314032 42.314032 0 0 0 55.431382 63.894189z" fill="#1296db" p-id="4265"></path></svg>
