<svg t="1697527541224" class="icon" viewBox="0 0 1024 1024" version="1.1" xmlns="http://www.w3.org/2000/svg" p-id="15556" width="200" height="200"><path d="M894.293333 853.333333c-40.96 20.48-95.573333 6.826667-122.88-34.133333l-75.093333-95.573333H327.68L252.586667 819.2c-34.133333 47.786667-95.573333 54.613333-143.36 20.48-34.133333-27.306667-47.786667-68.266667-40.96-102.4l47.786666-252.586667C129.706667 402.773333 204.8 341.333333 286.72 341.333333H477.866667V238.933333C477.866667 184.32 518.826667 136.533333 573.44 136.533333h211.626667c20.48 0 34.133333 13.653333 34.133333 34.133334s-13.653333 34.133333-34.133333 34.133333h-204.8c-20.48 0-34.133333 13.653333-34.133334 27.306667V341.333333h191.146667c81.92 0 157.013333 61.44 170.666667 143.36l47.786666 252.586667c6.826667 47.786667-13.653333 95.573333-61.44 116.053333zM409.6 512C409.6 457.386667 361.813333 409.6 307.2 409.6S204.8 457.386667 204.8 512 252.586667 614.4 307.2 614.4 409.6 566.613333 409.6 512z m409.6 0c0-20.48-13.653333-34.133333-34.133333-34.133333H750.933333v-34.133334c0-20.48-13.653333-34.133333-34.133333-34.133333s-34.133333 13.653333-34.133333 34.133333V477.866667h-34.133334c-20.48 0-34.133333 13.653333-34.133333 34.133333s13.653333 34.133333 34.133333 34.133333h34.133334v34.133334c0 20.48 13.653333 34.133333 34.133333 34.133333s34.133333-13.653333 34.133333-34.133333V546.133333h34.133334c20.48 0 34.133333-13.653333 34.133333-34.133333z" fill="#1296db" p-id="15557"></path></svg>
