<svg t="1698991395874" class="icon" viewBox="0 0 1024 1024" version="1.1" xmlns="http://www.w3.org/2000/svg" p-id="5139" width="200" height="200"><path d="M512 34.133333c251.448889 0 455.111111 203.662222 455.111111 455.111111S763.448889 944.355556 512 944.355556 56.888889 740.693333 56.888889 489.244444 260.551111 34.133333 512 34.133333z" fill="#F53D3D" p-id="5140"></path><path d="M755.484444 580.266667c-39.822222 0-119.466667-26.168889-128.568888-34.133334-5.688889-5.688889-7.964444-13.653333-9.102223-22.755555-2.275556-10.24-4.551111-22.755556-14.791111-32.995556-14.791111-15.928889-73.955556-17.066667-98.986666-17.066666-30.72 0-70.542222 2.275556-81.92 13.653333-9.102222 9.102222-13.653333 20.48-17.066667 31.857778-3.413333 10.24-6.826667 20.48-13.653333 27.306666-10.24 10.24-88.746667 30.72-124.017778 30.72-4.551111 0-6.826667 0-7.964445-1.137777-12.515556-13.653333-19.342222-34.133333-18.204444-56.888889 1.137778-21.617778 9.102222-42.097778 21.617778-53.475556 43.235556-42.097778 136.533333-67.128889 248.035555-67.128889 116.053333 0 220.728889 28.444444 260.551111 69.404445 10.24 11.377778 15.928889 32.995556 13.653334 59.164444-2.275556 25.031111-10.24 45.511111-15.928889 51.2-2.275556 1.137778-4.551111 2.275556-13.653334 2.275556z" fill="#FFFFFF" p-id="5141"></path><path d="M508.586667 409.6c112.64 0 215.04 26.168889 252.586666 65.991111 19.342222 19.342222 10.24 78.506667-1.137777 93.297778h-5.688889c-35.271111 0-108.088889-23.893333-120.604445-31.857778-3.413333-3.413333-4.551111-9.102222-5.688889-17.066667-2.275556-11.377778-5.688889-26.168889-18.204444-38.684444-12.515556-13.653333-48.924444-20.48-106.951111-20.48-72.817778 0-84.195556 12.515556-89.884445 15.928889-11.377778 11.377778-15.928889 25.031111-20.48 36.408889-3.413333 9.102222-5.688889 17.066667-11.377777 22.755555-11.377778 9.102222-83.057778 27.306667-116.053334 27.306667h-2.275555c-19.342222-26.168889-13.653333-71.68 5.688889-91.022222 42.097778-38.684444 133.12-62.577778 240.071111-62.577778m0-22.755556c-102.4 0-205.937778 21.617778-256 70.542223-28.444444 27.306667-36.408889 92.16-2.275556 127.431111 2.275556 2.275556 6.826667 3.413333 14.791111 3.413333 35.271111 0 117.191111-20.48 131.982222-34.133333 18.204444-17.066667 15.928889-44.373333 31.857778-59.164445 6.826667-6.826667 39.822222-10.24 73.955556-10.24 39.822222 0 81.92 4.551111 91.022222 13.653334 15.928889 17.066667 7.964444 39.822222 25.031111 56.888889 10.24 10.24 94.435556 37.546667 136.533333 37.546666 9.102222 0 17.066667-1.137778 20.48-4.551111 19.342222-18.204444 32.995556-96.711111 2.275556-127.431111-45.511111-47.786667-157.013333-73.955556-269.653333-73.955556z" fill="#F53D3D" p-id="5142"></path></svg>
